<svg id="Layer_1" data-name="Layer 1" xmlns="http://www.w3.org/2000/svg" viewBox="0 0 263.67 323.91"><title></title><path fill="#FE1507" d="M507.44,332.45a73.38,73.38,0,0,0-35.06,61.72,71.41,71.41,0,0,0,43.46,65.5,170.62,170.62,0,0,1-22.25,46c-13.85,19.94-28.34,39.89-50.38,39.89s-27.71-12.81-53.11-12.81c-24.77,0-33.59,13.23-53.74,13.23S302.13,527.48,286,504.81a198.88,198.88,0,0,1-33.8-107.27c0-63,40.94-96.36,81.24-96.36,21.41,0,39.26,14.06,52.69,14.06,12.81,0,32.75-14.91,57.1-14.91A76.38,76.38,0,0,1,507.44,332.45Zm-75.78-58.78a72.39,72.39,0,0,0,17.21-45.12,31.21,31.21,0,0,0-.63-6.5,72.54,72.54,0,0,0-47.65,24.56,70.39,70.39,0,0,0-17.84,43.87,28.84,28.84,0,0,0,.63,5.88,24.19,24.19,0,0,0,4.41.42A62.88,62.88,0,0,0,431.65,273.68Z" transform="translate(-252.16 -222.05)"/></svg>