<?xml version="1.0" standalone="no"?>
<!DOCTYPE svg PUBLIC "-//W3C//DTD SVG 20010904//EN"
 "http://www.w3.org/TR/2001/REC-SVG-20010904/DTD/svg10.dtd">
<svg version="1.0" xmlns="http://www.w3.org/2000/svg"
 width="398.000000pt" height="504.000000pt" viewBox="0 0 398.000000 504.000000"
 preserveAspectRatio="xMidYMid meet">

<g transform="translate(0.000000,504.000000) scale(0.100000,-0.100000)"
   fill="red" stroke="none">
<path d="M1680 4800 c20 -13 53 -13 45 0 -3 6 -18 10 -33 10 -21 0 -24 -2 -12
-10z"/>
<path d="M1748 4793 c7 -3 16 -2 19 1 4 3 -2 6 -13 5 -11 0 -14 -3 -6 -6z"/>
<path d="M1812 4773 c-7 -3 -17 -16 -22 -29 -8 -20 -16 -24 -52 -24 -53 0 -81
-15 -58 -30 8 -5 34 -10 57 -10 33 0 43 4 48 20 5 15 15 20 43 20 44 0 58 8
57 35 0 15 -7 20 -30 22 -16 1 -36 -1 -43 -4z"/>
<path d="M2490 4752 c0 -34 -11 -52 -31 -52 -16 0 -19 -8 -19 -51 0 -42 3 -52
20 -56 29 -8 25 -17 -15 -29 -42 -13 -48 -6 -39 41 7 39 -10 49 -20 13 -6 -22
-7 -21 -21 10 -8 17 -21 32 -30 32 -8 0 -15 5 -15 10 0 6 -13 10 -29 10 -16 0
-31 6 -35 15 -7 20 -36 8 -36 -16 0 -12 7 -19 20 -19 11 0 20 -4 20 -10 0 -14
-23 -13 -38 2 -9 9 -21 9 -50 0 -48 -15 -52 -15 -52 -2 0 6 14 10 30 10 17 0
30 5 30 10 0 6 7 10 16 10 9 0 14 5 12 12 -6 18 -28 21 -28 4 0 -12 -11 -16
-50 -16 -38 0 -50 4 -50 15 0 11 -10 15 -32 14 -25 -1 -27 -3 -10 -6 23 -4 26
-29 4 -27 -7 1 -32 2 -57 3 -34 1 -45 5 -45 17 0 9 -3 14 -7 12 -28 -13 -61
-27 -77 -32 -18 -6 -18 -7 3 -29 29 -32 26 -45 -11 -50 -28 -3 -26 -4 12 -6
25 -1 81 -8 125 -14 l80 -12 3 -32 c4 -40 54 -93 88 -93 13 0 24 5 24 10 0 6
7 10 15 10 8 0 15 -4 15 -10 0 -5 9 -10 20 -10 11 0 20 -4 20 -10 0 -5 -6 -10
-13 -10 -12 0 -37 -97 -37 -145 0 -24 58 -75 86 -75 18 0 28 -9 41 -37 l17
-38 4 33 c3 32 4 32 57 32 42 0 53 -3 49 -14 -3 -8 3 -16 15 -19 24 -6 31 0
31 25 0 40 19 15 25 -34 7 -47 9 -50 21 -33 8 10 14 31 14 47 0 20 5 28 18 28
28 1 97 54 100 78 2 12 10 22 18 22 16 0 19 -36 4 -45 -14 -9 -13 -21 4 -37 7
-8 16 -24 20 -36 4 -12 28 -40 53 -62 41 -36 48 -39 56 -24 5 9 6 37 2 63 -4
25 -11 69 -15 96 -4 28 -15 73 -25 100 -10 28 -20 57 -23 65 -4 10 -7 7 -10
-10 -7 -48 -24 -48 -19 0 5 44 2 54 -51 168 -18 38 -32 42 -32 7 0 -14 -4 -25
-8 -25 -5 0 -14 11 -20 25 -6 14 -16 25 -22 25 -5 0 -10 9 -10 20 0 11 -6 20
-13 20 -14 0 -57 52 -57 70 0 5 5 10 10 10 17 0 11 27 -7 34 -10 3 -24 9 -30
12 -8 3 -13 -2 -13 -14z m20 -91 c12 -23 14 -111 2 -111 -15 0 -32 49 -32 90
0 43 13 52 30 21z m-536 -9 c2 -4 -2 -15 -9 -25 -15 -20 -31 -6 -21 18 6 16
22 20 30 7z m386 -118 c0 -48 -26 -45 -33 4 -5 45 0 57 19 41 8 -6 14 -27 14
-45z m-182 39 c-10 -2 -28 -2 -40 0 -13 2 -5 4 17 4 22 1 32 -1 23 -4z m112
-3 c0 -5 -4 -10 -10 -10 -5 0 -10 5 -10 10 0 6 5 10 10 10 6 0 10 -4 10 -10z
m132 -54 c4 -17 1 -23 -9 -19 -14 6 -18 43 -4 43 5 0 11 -11 13 -24z m-39 -68
c-2 -5 -8 -8 -14 -8 -11 0 -12 33 -2 44 8 8 23 -25 16 -36z m21 -37 c9 -14 -5
-41 -21 -41 -10 0 -13 6 -9 16 3 9 6 20 6 25 0 12 17 12 24 0z m185 -63 c-6
-11 -8 -33 -5 -49 6 -32 -2 -62 -14 -54 -9 5 -11 125 -3 138 3 4 11 3 19 -4
10 -8 11 -16 3 -31z m109 3 c2 -7 -5 -15 -17 -18 -16 -4 -21 -13 -21 -40 0
-23 -4 -33 -12 -31 -16 6 -23 58 -8 58 6 0 16 11 22 25 12 26 28 29 36 6z m82
-57 c0 -21 -4 -33 -10 -29 -5 3 -10 19 -10 36 0 16 5 29 10 29 6 0 10 -16 10
-36z m-377 20 c9 -3 12 -14 10 -28 -6 -28 -67 -66 -82 -51 -8 9 -15 55 -12 78
1 8 62 10 84 1z m-103 -8 c0 -11 -19 -15 -25 -6 -3 5 1 10 9 10 9 0 16 -2 16
-4z m500 -142 c0 -14 -4 -22 -10 -19 -5 3 -10 17 -10 31 0 14 4 22 10 19 6 -3
10 -17 10 -31z"/>
<path d="M1410 4734 c0 -9 -9 -18 -19 -21 -11 -3 -22 -11 -25 -18 -3 -8 -23
-19 -46 -25 -29 -8 -44 -19 -53 -38 -12 -29 -52 -72 -67 -72 -16 0 -40 -31
-40 -54 0 -12 -16 -37 -35 -56 -27 -26 -36 -45 -41 -82 -5 -37 -11 -48 -24
-48 -10 0 -22 -6 -27 -12 -13 -18 -33 -90 -33 -120 0 -13 -7 -33 -15 -44 -15
-20 -20 -64 -7 -64 10 0 46 47 55 73 3 9 13 17 22 17 8 0 15 5 15 11 0 6 14
27 30 46 17 18 30 42 30 52 0 10 7 24 15 31 8 7 15 20 15 30 0 9 9 25 20 35
11 10 20 26 20 36 0 11 10 21 25 25 14 3 25 10 25 15 0 5 11 19 25 31 14 12
25 32 25 45 0 15 9 27 25 35 17 7 29 24 36 51 6 22 22 51 35 64 34 33 49 73
29 73 -8 0 -15 -7 -15 -16z"/>
<path d="M2560 4700 c0 -6 16 -24 35 -41 19 -17 35 -37 35 -45 0 -24 17 -15
23 11 3 20 -1 29 -23 40 -14 7 -32 21 -39 29 -15 18 -31 21 -31 6z"/>
<path d="M2346 4692 c-7 -12 42 -38 51 -28 5 4 -1 14 -11 22 -23 16 -33 18
-40 6z"/>
<path d="M2627 4124 c-13 -13 -7 -24 14 -24 11 0 19 5 17 12 -5 14 -22 21 -31
12z"/>
<path d="M2843 3884 c3 -31 8 -59 11 -62 13 -13 17 10 11 62 -10 75 -30 75
-22 0z"/>
<path d="M2900 3579 c-9 -16 -8 -24 4 -38 8 -9 22 -37 31 -61 8 -24 20 -49 26
-57 7 -7 9 -28 6 -46 -5 -32 6 -67 17 -56 12 12 9 149 -4 212 -14 63 -16 67
-42 67 -17 0 -31 -8 -38 -21z"/>
<path d="M2740 3520 c0 -11 5 -20 10 -20 6 0 10 9 10 20 0 11 -4 20 -10 20 -5
0 -10 -9 -10 -20z"/>
<path d="M2812 3488 c-18 -18 -15 -28 8 -28 13 0 20 7 20 20 0 23 -10 26 -28
8z"/>
<path d="M2796 3422 c-2 -4 -7 -24 -11 -45 -4 -20 -11 -37 -16 -37 -13 0 -5
-101 10 -128 6 -11 11 -27 11 -34 0 -7 4 -19 9 -27 8 -12 14 -12 43 2 37 18
58 60 57 117 -1 19 0 42 2 50 3 10 -7 18 -29 25 -26 7 -34 17 -43 47 -9 36
-22 48 -33 30z m32 -128 c27 -8 32 -58 6 -68 -24 -9 -54 12 -54 38 0 35 8 40
48 30z"/>
<path d="M1846 3234 c-39 -13 -80 -24 -92 -24 -13 0 -38 -14 -56 -30 -18 -17
-50 -38 -71 -47 -29 -13 -40 -26 -49 -54 -12 -41 -27 -49 -93 -49 -59 0 -112
17 -117 38 -8 31 -94 74 -152 77 -28 1 -66 8 -85 14 -65 21 -88 -37 -25 -64
50 -21 38 -38 -34 -49 -55 -8 -62 -12 -62 -32 0 -13 5 -26 10 -29 6 -3 10 -22
10 -41 0 -24 5 -37 18 -41 22 -9 66 -53 75 -75 3 -10 13 -18 20 -18 21 0 55
-42 40 -47 -26 -9 -13 -41 23 -58 70 -33 225 0 257 55 9 15 17 37 17 48 0 43
10 52 60 52 65 0 100 -14 100 -40 0 -25 3 -27 120 -41 193 -24 193 -24 264 11
l66 33 260 -8 c254 -7 260 -7 260 13 0 26 -38 32 -206 32 -94 0 -140 4 -159
14 l-27 14 47 7 c25 4 108 3 183 -4 162 -13 468 -18 478 -8 4 4 5 9 2 12 -4 5
-151 20 -453 46 -71 6 -139 15 -150 19 -11 5 -33 11 -48 15 -33 7 -102 49
-133 82 -30 30 -115 53 -200 53 -78 0 -96 10 -70 39 9 10 16 23 16 30 0 7 21
21 47 33 46 20 46 20 22 34 -31 17 -31 17 -113 -12z m124 -204 c11 -6 27 -26
36 -46 14 -29 15 -39 4 -58 -28 -53 -110 -55 -136 -3 -13 25 -14 37 -5 68 6
21 19 40 29 42 31 8 53 7 72 -3z m-694 -58 c17 -11 34 -48 34 -74 0 -25 -49
-78 -72 -78 -7 0 -21 8 -30 18 -9 9 -24 23 -33 31 -22 18 -13 69 16 94 22 17
65 22 85 9z"/>
<path d="M2915 3129 c-10 -15 3 -25 16 -12 7 7 7 13 1 17 -6 3 -14 1 -17 -5z"/>
<path d="M2780 3084 c0 -8 5 -12 10 -9 6 3 10 10 10 16 0 5 -4 9 -10 9 -5 0
-10 -7 -10 -16z"/>
<path d="M2825 2790 c3 -5 11 -10 16 -10 6 0 7 5 4 10 -3 6 -11 10 -16 10 -6
0 -7 -4 -4 -10z"/>
<path d="M2847 2714 c-3 -3 1 -24 9 -46 8 -22 14 -75 14 -117 0 -73 1 -78 31
-104 17 -15 42 -30 55 -33 13 -3 24 -11 24 -18 0 -6 10 -16 22 -21 30 -13 35
-43 37 -201 1 -114 -1 -134 -18 -155 -19 -25 -27 -56 -39 -151 -4 -31 -15 -65
-25 -76 -10 -11 -17 -35 -17 -60 0 -30 -6 -47 -20 -59 -11 -10 -20 -26 -20
-36 0 -48 -47 -96 -65 -67 -9 15 -35 -8 -35 -30 0 -10 -4 -20 -9 -22 -5 -1
-12 -18 -16 -35 -5 -28 -4 -32 9 -27 9 3 16 18 16 33 0 14 10 37 21 51 l21 25
-6 -35 c-4 -19 -16 -48 -28 -65 -30 -40 -36 -92 -47 -395 -5 -140 -15 -300
-21 -355 -31 -281 -45 -376 -61 -430 -7 -22 -14 -83 -16 -135 -3 -57 -10 -101
-17 -110 -7 -8 -16 -21 -20 -27 -6 -10 129 -13 653 -13 l661 0 0 793 c0 879
-5 1087 -26 1087 -19 0 -18 16 1 24 10 4 15 19 15 48 -1 35 -3 40 -13 28 -16
-20 -73 -14 -90 10 -12 18 -16 18 -57 4 -32 -11 -46 -12 -54 -4 -8 8 -6 15 7
25 18 13 17 14 -2 20 -15 4 -21 15 -21 35 0 19 -6 30 -17 33 -14 4 -13 5 3 6
28 1 157 -38 165 -50 3 -6 21 -12 41 -15 33 -6 35 -4 41 26 4 18 4 36 1 41 -3
5 -38 9 -79 9 -41 0 -76 4 -79 8 -3 5 -37 14 -76 21 -38 7 -73 17 -76 23 -11
18 13 30 60 30 53 1 57 18 6 31 -18 4 -40 16 -49 25 -15 14 -16 14 -19 -8 -2
-14 -13 -30 -23 -38 -10 -7 -19 -22 -19 -33 0 -11 -7 -22 -15 -25 -8 -4 -15
-15 -15 -25 0 -10 -4 -19 -9 -19 -14 0 -23 18 -13 24 13 8 2 108 -14 127 -8 8
-14 21 -14 27 0 7 -10 13 -22 13 -13 1 -30 2 -38 3 -29 2 -42 18 -36 42 7 26
-19 94 -36 94 -5 0 -8 -24 -6 -52 1 -29 1 -86 0 -126 -3 -97 -22 -85 -22 14 0
67 -3 76 -25 96 -16 14 -25 32 -25 50 0 16 -9 46 -20 68 -11 22 -20 44 -20 50
0 5 -9 19 -19 29 -16 16 -39 20 -123 24 -56 3 -104 6 -105 6 -2 1 -3 8 -3 16
0 44 -126 125 -153 99z m633 -458 c0 -32 -31 -45 -60 -26 -13 9 -13 11 0 20
15 10 60 14 60 6z m-70 -136 c-30 -30 -39 -16 -9 16 13 14 25 21 27 15 2 -5
-6 -19 -18 -31z m290 -160 c0 -5 -7 -10 -15 -10 -8 0 -15 5 -15 10 0 6 7 10
15 10 8 0 15 -4 15 -10z"/>
<path d="M1810 2547 c0 -2 6 -17 14 -33 8 -16 19 -48 24 -71 16 -69 1 -86
-122 -137 -21 -9 -36 -20 -32 -23 8 -9 -24 -43 -40 -43 -7 0 -15 -8 -18 -17
-5 -15 -19 -18 -91 -19 -79 -1 -88 1 -114 25 -48 45 -55 131 -16 224 5 12 3
17 -9 17 -16 0 -39 -37 -50 -82 -3 -16 -12 -28 -20 -28 -13 0 -76 -72 -76 -87
0 -5 -9 -16 -20 -26 -17 -14 -20 -24 -14 -55 8 -45 34 -92 51 -92 7 0 17 -18
23 -40 6 -23 21 -47 35 -56 15 -10 25 -26 25 -39 0 -13 6 -25 13 -28 7 -2 12
-23 13 -53 0 -27 4 -59 8 -71 9 -27 -5 -30 -29 -6 -13 12 -19 13 -24 4 -10
-15 -41 12 -41 35 0 8 -6 14 -12 15 -13 0 -78 83 -78 98 0 5 -11 18 -25 29
-14 11 -25 23 -25 27 0 4 -9 18 -20 32 -16 21 -20 22 -20 8 0 -11 -5 -15 -14
-12 -8 3 -20 -1 -26 -9 -7 -8 -25 -14 -40 -14 -16 0 -30 -7 -34 -15 -3 -8 -12
-15 -19 -15 -10 0 -17 -17 -21 -50 -5 -41 -12 -53 -31 -62 -14 -6 -25 -19 -25
-30 0 -10 -8 -26 -19 -37 -12 -12 -20 -38 -23 -74 -3 -31 -13 -67 -24 -84 -10
-15 -21 -37 -24 -48 -3 -11 -10 -20 -15 -20 -6 -1 -34 -9 -62 -19 -50 -17 -53
-19 -53 -52 0 -28 -8 -42 -37 -69 -21 -19 -44 -35 -50 -35 -7 0 -13 -7 -13
-15 0 -9 -10 -20 -22 -25 -13 -5 -18 -9 -13 -9 6 -1 10 -25 10 -53 0 -60 -14
-78 -79 -99 -22 -8 -41 -21 -44 -31 -3 -12 -21 -23 -49 -31 -25 -6 -49 -20
-55 -30 -5 -10 -23 -23 -39 -29 -16 -6 -29 -17 -29 -27 0 -9 -14 -22 -32 -30
-40 -17 -98 -59 -98 -71 0 -5 -19 -29 -42 -53 -24 -25 -55 -59 -70 -77 l-28
-33 0 -398 0 -399 840 0 840 0 0 64 c0 37 -7 80 -17 102 -9 22 -19 82 -23 135
-4 58 -13 105 -23 120 -19 30 -37 115 -37 175 0 25 -7 58 -15 74 -8 16 -19 82
-25 157 -5 70 -15 146 -21 168 -6 22 -14 81 -19 130 -4 50 -11 120 -15 158 -8
69 -4 77 29 52 13 -10 17 -22 14 -40 -4 -19 1 -31 21 -46 14 -11 33 -39 41
-62 9 -23 21 -43 28 -43 7 -1 21 -2 32 -3 17 -1 20 -8 20 -50 0 -29 6 -53 14
-60 7 -6 17 -35 20 -64 4 -28 12 -79 17 -112 5 -33 12 -78 15 -100 4 -22 14
-48 24 -57 18 -17 40 -115 40 -178 0 -19 9 -77 19 -130 10 -52 24 -135 30
-185 7 -49 17 -116 23 -147 l11 -58 312 0 312 0 6 98 c4 53 7 140 7 192 0 52
7 174 16 270 24 275 28 403 15 428 -10 20 -9 23 13 31 19 8 28 25 46 83 11 40
28 85 36 100 8 14 14 45 14 68 0 22 9 60 20 82 11 23 20 49 20 58 0 16 21 69
40 100 21 34 40 84 40 106 0 12 5 26 10 29 6 3 10 34 10 68 0 72 -12 65 -30
-18 -18 -85 -38 -149 -55 -171 -8 -10 -15 -29 -15 -41 0 -12 -5 -25 -11 -29
-6 -3 -19 -25 -29 -48 -14 -35 -25 -44 -61 -56 -34 -12 -43 -12 -47 -2 -2 8
-15 17 -28 22 -14 6 -24 18 -24 30 0 21 -12 24 -45 10 -18 -8 -18 -9 5 -10 14
-2 3 -6 -25 -11 -62 -11 -75 -6 -75 26 0 24 -2 25 -70 25 -53 0 -72 4 -76 15
-4 8 -10 13 -14 10 -5 -3 -8 6 -7 21 1 16 -5 31 -16 38 -15 9 -22 7 -40 -14
-26 -31 -100 -68 -142 -72 -20 -2 -33 -11 -40 -25 -8 -18 -20 -23 -82 -28 -40
-4 -89 -4 -110 -1 -21 4 -57 6 -80 6 -24 0 -43 4 -43 10 0 5 -6 10 -13 10 -7
0 -28 11 -47 25 -19 14 -29 25 -22 25 25 0 12 45 -19 65 -17 11 -45 46 -62 80
-29 56 -31 66 -30 162 0 67 5 108 13 118 7 9 15 13 18 10 3 -3 15 4 27 15 21
20 24 20 66 6 24 -9 65 -16 92 -16 26 0 47 -4 47 -9 0 -14 -41 -21 -81 -15
-20 4 -39 2 -43 -4 -8 -13 34 -90 74 -134 29 -32 40 -38 76 -38 60 0 101 10
118 29 70 74 76 91 30 91 -17 0 -24 5 -24 19 0 11 5 23 10 26 6 3 10 12 10 20
0 10 -9 12 -37 8 l-38 -6 38 35 c20 19 37 40 37 46 0 18 51 27 60 11 7 -11 12
-10 28 4 10 9 26 17 36 17 9 0 25 4 35 9 25 14 81 -21 81 -51 0 -16 15 -33 50
-57 30 -20 50 -41 50 -52 0 -21 41 -63 83 -85 15 -8 27 -21 27 -29 0 -8 5 -15
12 -15 6 0 20 -8 31 -17 18 -17 19 -17 15 17 -2 23 1 34 9 33 6 -2 27 4 46 12
29 12 35 21 41 55 7 44 -5 76 -36 98 -10 7 -18 21 -18 31 0 10 -7 24 -15 31
-12 10 -20 7 -42 -19 -15 -17 -33 -31 -39 -31 -6 0 -21 -9 -34 -20 -29 -25
-51 -25 -79 -1 -32 28 -40 69 -29 147 12 89 15 195 6 201 -5 2 -8 12 -8 21 -1
23 -72 66 -143 87 -32 9 -61 23 -64 31 -9 24 -56 68 -85 81 -16 7 -28 19 -28
27 0 8 -10 22 -22 30 -21 15 -38 20 -38 13z m121 -272 c2 -43 3 -46 25 -63 27
-23 47 -69 33 -78 -15 -9 -174 -18 -194 -10 -13 5 -9 16 29 63 25 32 55 70 66
86 27 34 40 34 41 2z m-400 -165 c13 0 2 -40 -16 -59 -32 -33 -75 25 -67 92
l3 28 35 -31 c19 -16 39 -30 45 -30z m309 -88 c0 -14 -11 -21 -26 -15 -8 3
-11 9 -8 14 7 11 34 12 34 1z m-302 -626 c-2 -10 -13 -23 -25 -27 -21 -8 -23
-5 -23 25 0 18 3 35 6 39 11 11 45 -18 42 -37z m-920 -218 c-3 -7 -11 -13 -18
-13 -7 0 -15 6 -17 13 -3 7 4 12 17 12 13 0 20 -5 18 -12z m1729 -13 c-4 -8
-12 -15 -19 -14 -10 0 -10 2 0 6 6 2 12 12 12 21 0 8 3 13 6 9 4 -3 4 -13 1
-22z m-67 -35 c0 -11 -69 -32 -82 -24 -14 9 -9 22 10 27 32 9 72 7 72 -3z
m-1810 -10 c-19 -13 -30 -13 -30 0 0 6 10 10 23 10 18 0 19 -2 7 -10z m-72
-72 c-2 -17 -11 -24 -33 -26 l-30 -4 25 25 c32 32 42 33 38 5z m-125 -59 c-18
-12 -33 -29 -33 -40 0 -10 -6 -19 -14 -19 -8 0 -16 -7 -20 -15 -6 -17 -36 -21
-36 -5 0 5 9 15 20 22 11 7 20 17 20 23 0 15 53 54 75 54 16 1 13 -4 -12 -20z
m-136 -116 c-9 -9 -19 -14 -23 -11 -10 10 6 28 24 28 15 0 15 -1 -1 -17z m-13
-84 c-9 -15 -34 17 -34 44 0 17 3 16 21 -7 11 -14 17 -31 13 -37z m-40 6 c-4
-8 -8 -15 -10 -15 -2 0 -4 7 -4 15 0 8 4 15 10 15 5 0 7 -7 4 -15z"/>
<path d="M3748 2203 c6 -2 12 -11 12 -19 0 -14 38 -34 65 -34 25 0 4 36 -29
48 -31 12 -76 16 -48 5z"/>
<path d="M3888 2143 c6 -2 18 -2 25 0 6 3 1 5 -13 5 -14 0 -19 -2 -12 -5z"/>
<path d="M457 1303 c-4 -3 -7 -17 -7 -29 0 -31 26 -21 33 12 4 23 -11 33 -26
17z"/>
<path d="M347 1223 c-13 -12 -7 -23 12 -23 10 0 24 7 31 15 10 13 9 15 -12 15
-14 0 -28 -3 -31 -7z"/>
<path d="M290 1175 c0 -8 9 -15 20 -15 11 0 20 7 20 15 0 8 -9 15 -20 15 -11
0 -20 -7 -20 -15z"/>
<path d="M215 1119 c-4 -6 -5 -13 -2 -16 7 -7 27 6 27 18 0 12 -17 12 -25 -2z"/>
<path d="M180 1080 c0 -5 -6 -10 -14 -10 -7 0 -16 -9 -19 -20 -7 -27 18 -26
37 2 18 26 20 38 6 38 -5 0 -10 -4 -10 -10z"/>
<path d="M30 914 c0 -17 22 -14 28 4 2 7 -3 12 -12 12 -9 0 -16 -7 -16 -16z"/>
</g>
</svg>
